<?xml version="1.0" encoding="iso-8859-1"?>
<!-- Generator: Adobe Illustrator 19.0.0, SVG Export Plug-In . SVG Version: 6.00 Build 0)  -->
<svg xmlns="http://www.w3.org/2000/svg" xmlns:xlink="http://www.w3.org/1999/xlink" version="1.1" id="Capa_1" x="0px" y="0px" viewBox="0 0 490 490" style="enable-background:new 0 0 490 490;" xml:space="preserve" width="512px" height="512px">
<g>
	<path d="M490,327.193V0H0v327.193h191.383l-24.001,141.956h-47.274V490h249.785v-20.851h-47.274l-24.002-141.956H490z    M188.535,469.149l23.987-141.956h64.956l23.986,141.956H188.535z M20.851,20.851h448.298v285.491H20.851V20.851z" fill="#FFFFFF"/>
	<polygon points="110.409,155.493 71.23,155.493 71.23,114.341 49.242,114.341 49.242,212.852 71.23,212.852 71.23,174.096    110.409,174.096 110.409,212.852 132.396,212.852 132.396,114.341 110.409,114.341  " fill="#FFFFFF"/>
	<polygon points="148.452,133.369 176.358,133.369 176.358,212.852 198.345,212.852 198.345,133.369 226.25,133.369 226.25,114.341    148.452,114.341  " fill="#FFFFFF"/>
	<polygon points="297.417,168.454 272.058,114.341 242.319,114.341 242.319,212.852 264.305,212.852 264.305,150.837    290.799,204.674 303.91,204.674 330.542,150.837 330.542,212.852 352.528,212.852 352.528,114.341 322.937,114.341  " fill="#FFFFFF"/>
	<polygon points="398.761,114.341 376.775,114.341 376.775,212.852 440.763,212.852 440.763,193.261 398.761,193.261  " fill="#FFFFFF"/>
</g>
<g>
</g>
<g>
</g>
<g>
</g>
<g>
</g>
<g>
</g>
<g>
</g>
<g>
</g>
<g>
</g>
<g>
</g>
<g>
</g>
<g>
</g>
<g>
</g>
<g>
</g>
<g>
</g>
<g>
</g>
</svg>
