<?xml version="1.0" encoding="iso-8859-1"?>
<!-- Generator: Adobe Illustrator 19.0.0, SVG Export Plug-In . SVG Version: 6.00 Build 0)  -->
<svg xmlns="http://www.w3.org/2000/svg" xmlns:xlink="http://www.w3.org/1999/xlink" version="1.1" id="Layer_1" x="0px" y="0px" viewBox="0 0 64 64" style="enable-background:new 0 0 64 64;" xml:space="preserve" width="512px" height="512px">
<g>
	<g>
		<path d="M58,41.078V18.5c0-2.481-2.019-4.5-4.5-4.5S49,16.018,49,18.5V29c0,1.654-1.346,3-3,3h-1.836    C41.979,27,37.99,22.71,33,20.291V8.719l4-1.333v4.797c-1.161,0.414-2,1.514-2,2.816c0,1.654,1.346,3,3,3s3-1.346,3-3    c0-1.302-0.839-2.402-2-2.816V6c0-0.431-0.275-0.812-0.684-0.948l-15-5c-0.205-0.068-0.428-0.068-0.633,0l-15,5    C7.275,5.187,7,5.568,7,6c0,0.43,0.275,0.812,0.684,0.948L13,8.719v11.57C5.313,24.017,0,31.898,0,41c0,12.683,10.317,23,23,23    s23-10.318,23-23c0-2.44-0.385-5-1.093-7H46c2.757,0,5-2.243,5-5V18.5c0-1.379,1.121-2.5,2.5-2.5S56,17.12,56,18.5v22.58    c-3.386,0.488-6,3.401-6,6.92v6c0,3.859,3.141,7,7,7s7-3.141,7-7v-6C64,44.479,61.386,41.567,58,41.078z M38,14    c0.552,0,1,0.448,1,1s-0.448,1-1,1s-1-0.448-1-1S37.448,14,38,14z M40.391,29.242c2.1,3.096,3.369,6.755,3.558,10.755h-9.961    v0.001c-0.056-3-0.353-5.602-0.852-8.091C35.893,31.275,38.344,30.367,40.391,29.242z M39.191,27.64    c-1.822,0.959-4.037,1.741-6.501,2.306c-1.013-3.944-2.56-7.161-4.452-9.26C32.59,21.812,36.409,24.275,39.191,27.64z     M31.151,32.302c0.479,2.377,0.768,4.697,0.827,7.697H24v-7.026C26.487,32.924,28.895,32.7,31.151,32.302z M24,30.986V20.145    c2.815,0.765,5.276,4.709,6.7,10.2C28.576,30.716,26.316,30.937,24,30.986z M11.162,6L23,2.052L34.838,6L23,9.945L11.162,6z     M17.761,20.687c-1.892,2.099-3.439,5.315-4.452,9.26c-2.464-0.566-4.679-1.347-6.501-2.306    C9.591,24.275,13.41,21.812,17.761,20.687z M5.608,29.244c2.047,1.124,4.498,2.031,7.255,2.664    c-0.499,2.489-0.796,5.091-0.852,8.091h-9.96C2.239,35.999,3.508,32.34,5.608,29.244z M5.577,52.708    c-2.082-3.087-3.339-6.71-3.527-10.71h9.961c0.056,3,0.347,5.559,0.839,8.031C10.085,50.666,7.627,51.578,5.577,52.708z     M6.774,54.312c1.825-0.966,4.048-1.752,6.521-2.32c1.012,3.971,2.565,7.21,4.466,9.319C13.391,60.182,9.559,57.7,6.774,54.312z     M22,61.854c-2.825-0.768-5.294-4.738-6.716-10.26C17.412,51.221,19.678,51,22,50.95V61.854z M22,48.963    c-2.492,0.049-4.904,0.274-7.164,0.673c-0.472-2.361-0.756-4.638-0.814-7.638H22V48.963z M22,39.999h-7.978    c0.058-3,0.347-5.32,0.827-7.697c2.256,0.398,4.663,0.622,7.151,0.671V39.999z M22,30.986c-2.316-0.049-4.576-0.27-6.7-0.64    c1.425-5.491,3.886-9.435,6.7-10.2V30.986z M15,19.437V9.385l7.684,2.561C22.786,11.981,22.894,12,23,12s0.214-0.018,0.316-0.052    L31,9.385v10.05C28.507,18.508,25.812,18,23,18S17.493,18.508,15,19.437z M23.999,41.999h7.978c-0.058,3-0.342,5.277-0.814,7.638    c-2.26-0.399-4.671-0.624-7.164-0.673V41.999z M24,61.854V50.95c2.321,0.049,4.587,0.271,6.716,0.643    C29.294,57.116,26.825,61.086,24,61.854z M28.238,61.31c1.901-2.109,3.454-5.348,4.466-9.319c2.473,0.569,4.696,1.355,6.521,2.32    C36.441,57.7,32.609,60.182,28.238,61.31z M40.423,52.708c-2.049-1.13-4.508-2.043-7.273-2.679    c0.492-2.473,0.783-5.031,0.839-8.031h9.961C43.762,45.999,42.504,49.622,40.423,52.708z M62,54c0,2.757-2.243,5-5,5s-5-2.243-5-5    v-6c0-2.757,2.243-5,5-5s5,2.243,5,5V54z" fill="#68615c"/>
	</g>
</g>
<g>
	<g>
		<rect x="56" y="45.999" width="2" height="3" fill="#68615c"/>
	</g>
</g>
<g>
	<g>
		<rect x="39" y="60" width="2" height="2" fill="#68615c"/>
	</g>
</g>
<g>
	<g>
		<rect x="43" y="60" width="2" height="2" fill="#68615c"/>
	</g>
</g>
<g>
	<g>
		<rect x="47" y="60" width="2" height="2" fill="#68615c"/>
	</g>
</g>
<g>
</g>
<g>
</g>
<g>
</g>
<g>
</g>
<g>
</g>
<g>
</g>
<g>
</g>
<g>
</g>
<g>
</g>
<g>
</g>
<g>
</g>
<g>
</g>
<g>
</g>
<g>
</g>
<g>
</g>
</svg>
