<?xml version="1.0" encoding="iso-8859-1"?>
<!-- Generator: Adobe Illustrator 19.0.0, SVG Export Plug-In . SVG Version: 6.00 Build 0)  -->
<svg xmlns="http://www.w3.org/2000/svg" xmlns:xlink="http://www.w3.org/1999/xlink" version="1.1" id="Layer_1" x="0px" y="0px" viewBox="0 0 233.858 233.858" style="enable-background:new 0 0 233.858 233.858;" xml:space="preserve" width="512px" height="512px">
<g>
	<g>
		<g>
			<path d="M113.304,160.692c-0.866-6.716-5.808-15.179-11.249-19.267l-24.051-18.087c-3.541-2.659-7.347-3.283-10.438-1.716     c-2.772,1.413-4.431,4.333-4.638,8.101c-0.187,0.537-0.314,1.172-0.3,1.91c0.036,1.799,0.896,3.508,2.549,5.062     c1.05,1.026,4.883,6.909,8.057,12.109l-25.454-8.625c-4.798-1.622-11.715-6.175-15.104-9.935l-19.44-21.607     c-4.202-4.668-7.627-4.155-9.298-3.437c-1.665,0.722-4.384,2.865-3.875,8.977c0.071,1.452,0.363,6.36,1.186,8.712     c3.79,10.839,12.8,22.96,13.094,23.347c3.563,5.157,10.515,11.817,15.83,15.163l35.235,22.179     c3.938,2.478,8.355,8.61,9.515,13.364c0.921,3.776,3.253,6.881,6.564,8.744c2.058,1.16,4.328,1.744,6.646,1.744     c1.43,0,2.878-0.221,4.305-0.675l12.628-4.001c7.363-2.336,12.358-10.152,11.372-17.795L113.304,160.692z M102.622,195.052     l-12.626,4.001c-1.586,0.493-3.198,0.351-4.547-0.411c-1.341-0.754-2.291-2.036-2.735-3.855     c-1.594-6.534-7.305-14.465-13.003-18.052l-35.235-22.179c-4.378-2.754-10.553-8.669-13.575-13.037     c-0.085-0.114-8.643-11.62-12.027-21.299c-0.217-0.623-0.491-2.774-0.659-5.082l18.454,20.51     c4.299,4.774,12.435,10.125,18.519,12.184l26.255,8.897c5.911,2.008,8.702-0.107,9.839-1.543     c1.135-1.432,2.551-4.621-0.702-9.853c-2.081-3.437-6.964-11.352-9.61-14.272c0.012-0.138,0.018-0.28,0.016-0.418     c-0.018-1.204,0.248-1.783,0.148-1.783c0.183-0.04,0.896,0.099,2.014,0.935l24.049,18.083c3.719,2.798,7.501,9.268,8.093,13.846     l3.133,24.266C108.908,189.753,106.252,193.899,102.622,195.052z" fill="#68615c"/>
			<path d="M229.927,105.2c-1.671-0.718-5.096-1.231-9.298,3.437l-19.44,21.607c-3.389,3.76-10.306,8.314-15.106,9.935     l-25.452,8.625c3.156-5.173,7.006-11.08,8.051-12.101c1.659-1.562,2.519-3.271,2.555-5.07c0.014-0.738-0.112-1.373-0.3-1.91     c-0.207-3.768-1.866-6.688-4.638-8.101c-3.095-1.566-6.895-0.943-10.44,1.72l-24.049,18.083     c-5.441,4.088-10.383,12.551-11.249,19.267l-3.133,24.266c-0.986,7.643,4.009,15.459,11.372,17.795l12.63,4.001     c1.424,0.454,2.872,0.675,4.303,0.675c2.318,0,4.589-0.584,6.646-1.744c3.31-1.862,5.642-4.968,6.623-8.981     c1.101-4.518,5.518-10.649,9.456-13.127l35.235-22.179c5.315-3.346,12.267-10.006,15.741-15.041     c0.383-0.509,9.393-12.63,13.183-23.469c0.823-2.352,1.115-7.26,1.176-8.57C234.311,108.064,231.592,105.922,229.927,105.2z      M224.988,120.221c-3.375,9.655-11.942,21.185-12.115,21.421c-2.934,4.246-9.109,10.16-13.486,12.914l-35.235,22.179     c-5.698,3.587-11.409,11.518-13.062,18.288c-0.385,1.582-1.334,2.865-2.675,3.618c-1.354,0.766-2.965,0.907-4.545,0.411     l-12.628-4.001c-3.63-1.152-6.286-5.299-5.8-9.059l3.133-24.266c0.592-4.577,4.374-11.048,8.093-13.846l24.047-18.079     c1.122-0.844,1.851-0.963,1.821-1.046c0.095,0.107,0.361,0.686,0.343,1.89c-0.002,0.138,0.004,0.28,0.016,0.418     c-2.369,2.474-7.469,10.736-9.584,14.228c-3.279,5.276-1.862,8.463-0.728,9.896c1.136,1.436,3.93,3.547,9.839,1.543l26.253-8.897     c6.086-2.06,14.222-7.41,18.521-12.184l18.454-20.51C225.486,117.396,225.21,119.59,224.988,120.221z" fill="#68615c"/>
			<path d="M168.194,61.797c2.129-7.059,0.454-14.781-4.717-21.745c-6.147-8.278-15.962-13.625-25.004-13.625     c-8.219,0-15.954,3.354-21.541,9.166c-5.587-5.812-13.323-9.166-21.542-9.166c-9.042,0-18.857,5.346-25.004,13.625     c-5.171,6.964-6.846,14.686-4.717,21.745c4.561,15.108,44.318,45.281,48.838,48.67c0.718,0.541,1.571,0.809,2.425,0.809     s1.707-0.268,2.425-0.809C123.877,107.078,163.634,76.905,168.194,61.797z M116.93,102.165     c-16.36-12.531-40.803-33.684-43.524-42.704c-1.853-6.139,1.377-11.778,3.466-14.591c4.605-6.199,12.046-10.362,18.517-10.362     c7.319,0,14.114,3.646,18.178,9.754c1.495,2.257,5.232,2.257,6.727,0c4.064-6.108,10.859-9.754,18.178-9.754     c6.471,0,13.913,4.163,18.517,10.362c2.089,2.813,5.319,8.452,3.466,14.591C157.736,68.473,133.291,89.63,116.93,102.165z" fill="#68615c"/>
		</g>
	</g>
</g>
<g>
</g>
<g>
</g>
<g>
</g>
<g>
</g>
<g>
</g>
<g>
</g>
<g>
</g>
<g>
</g>
<g>
</g>
<g>
</g>
<g>
</g>
<g>
</g>
<g>
</g>
<g>
</g>
<g>
</g>
</svg>
